<svg width="152" xmlns="http://www.w3.org/2000/svg" xmlns:xlink="http://www.w3.org/1999/xlink" x="0px" y="0px"
	 viewBox="0 0 152.2 46.3" style="enable-background:new 0 0 152.2 46.3;" xml:space="preserve">
<style type="text/css">
	.st0{fill:#818181;}
	.st1{fill:#FFFFFF;}
	.st2{fill:#818181;}
</style>
<g transform="translate(70.085 41.374)">
	<path class="st0" d="M-1.8-8.3v5.8c-0.1,0.7,0.1,1.4,0.5,1.9C-0.8-0.1-0.2,0.1,0.5,0c0.9,0.1,1.7-0.2,2.4-0.8
		c0.6-0.7,0.9-1.7,0.8-2.6v-4.9h0.8v9H3.7L3.6-0.6H3.5C2.8,0.4,1.6,1,0.4,0.8c-2,0-3.1-1.1-3.1-3.3v-5.9C-2.7-8.3-1.8-8.3-1.8-8.3z"
		/>
	<path class="st0" d="M14.5,0.7v-5.8c0.1-0.7-0.1-1.4-0.5-1.9c-0.5-0.5-1.1-0.7-1.8-0.6c-0.9-0.1-1.7,0.2-2.4,0.8
		C9.2-6.2,9-5.2,9-4.3v4.9H8.3v-9H9l0.2,1.2h0.1c0.7-1,1.9-1.6,3.1-1.4c2,0,3.1,1.1,3.1,3.3v5.9C15.4,0.7,14.5,0.7,14.5,0.7z"/>
	<path class="st0" d="M18.8-10.9c0-0.5,0.2-0.8,0.5-0.8c0.2,0,0.3,0.1,0.4,0.2c0.2,0.4,0.2,0.9,0,1.2c-0.1,0.2-0.3,0.2-0.4,0.2
		C18.9-10,18.8-10.4,18.8-10.9z M19.7,0.7h-0.8v-9h0.8V0.7z"/>
	<path class="st0" d="M25.4,0.7l-3.5-9h0.9L25-2.2c0.3,0.7,0.5,1.3,0.7,2h0.1c0.3-0.8,0.4-1.4,0.7-2.1l2.3-6.1h0.9l-3.5,9L25.4,0.7
		L25.4,0.7z"/>
	<path class="st0" d="M35.5,0.8c-1.2,0-2.3-0.4-3.1-1.2c-0.8-1-1.1-2.1-1.1-3.4c-0.1-1.2,0.3-2.5,1.1-3.4c0.7-0.9,1.7-1.4,2.8-1.3
		c1-0.1,1.9,0.4,2.6,1.1c0.6,0.9,1,1.9,0.9,3v0.7h-6.5c-0.1,1,0.2,2,0.9,2.8c0.6,0.7,1.5,1,2.5,1c0.4,0,0.9,0,1.3-0.1
		c0.4-0.1,0.9-0.3,1.5-0.4v0.7c-0.4,0.2-0.9,0.4-1.4,0.4C36.4,0.8,35.9,0.9,35.5,0.8z M35.2-7.8c-0.8,0-1.6,0.3-2.1,0.9
		c-0.6,0.7-0.9,1.6-0.9,2.5h5.6c0-0.9-0.2-1.7-0.7-2.5C36.6-7.6,35.9-7.9,35.2-7.8z"/>
	<path class="st0" d="M45.3-8.5c0.4,0,0.8,0,1.2,0.1l-0.2,0.8c-0.4-0.1-0.8-0.2-1.1-0.2c-0.7,0-1.4,0.4-1.9,1
		c-0.5,0.7-0.8,1.6-0.7,2.5v4.9h-0.8v-8.9h0.7l0.1,1.6h0.1c0.3-0.6,0.7-1,1.1-1.4C44.3-8.4,44.8-8.6,45.3-8.5z"/>
	<path class="st0" d="M54.7-1.7c0,0.7-0.3,1.4-0.9,1.9c-0.8,0.5-1.7,0.7-2.6,0.6c-1,0-2-0.1-2.9-0.5v-0.9C49.2-0.2,50.2,0,51.2,0
		c0.7,0,1.4-0.1,2-0.4c0.4-0.2,0.7-0.7,0.7-1.1c0-0.4-0.2-0.9-0.5-1.1c-0.5-0.4-1.2-0.7-1.9-0.9c-0.7-0.2-1.3-0.5-1.9-0.9
		c-0.3-0.2-0.6-0.5-0.8-0.8c-0.2-0.3-0.3-0.7-0.3-1.1c0-0.7,0.3-1.3,0.9-1.6c0.7-0.4,1.5-0.7,2.4-0.6c0.9,0,1.9,0.2,2.7,0.5
		l-0.3,0.7c-0.8-0.3-1.6-0.5-2.5-0.5c-0.6,0-1.2,0.1-1.8,0.4c-0.4,0.2-0.6,0.6-0.6,1c0,0.4,0.2,0.9,0.5,1.1c0.6,0.4,1.3,0.7,1.9,1
		c0.6,0.2,1.2,0.4,1.8,0.8c0.3,0.2,0.6,0.5,0.8,0.8C54.6-2.5,54.7-2.1,54.7-1.7z"/>
	<path class="st0" d="M57.5-10.9c0-0.5,0.2-0.8,0.5-0.8c0.2,0,0.3,0.1,0.4,0.2c0.2,0.4,0.2,0.9,0,1.2c-0.1,0.2-0.3,0.2-0.4,0.2
		C57.7-10,57.5-10.4,57.5-10.9z M58.5,0.7h-0.8v-9h0.8V0.7z"/>
	<path class="st0" d="M64.5,0.1c0.4,0,0.9-0.1,1.3-0.2v0.7c-0.5,0.2-0.9,0.2-1.4,0.2c-0.7,0.1-1.3-0.2-1.8-0.6
		c-0.4-0.6-0.6-1.3-0.5-2v-5.8h-1.2v-0.4l1.3-0.4l0.4-2h0.4v2.2h2.6v0.7h-2.6v5.7c-0.1,0.5,0.1,1.1,0.4,1.5
		C63.7,0,64.1,0.2,64.5,0.1z"/>
	<path class="st0" d="M67-8.3h0.9l1.9,5c0.6,1.6,1,2.6,1.1,3.2H71c0.3-0.7,0.6-1.8,1.1-3.2l1.9-5H75L70.8,2.2
		C70.4,3,70.2,3.6,70,3.9c-0.2,0.3-0.5,0.5-0.8,0.7c-0.3,0.2-0.7,0.3-1.1,0.3c-0.4,0-0.7-0.1-1.1-0.2V4c0.3,0.1,0.7,0.2,1.1,0.2
		c0.2,0,0.5-0.1,0.7-0.2c0.2-0.2,0.4-0.4,0.6-0.6c0.2-0.4,0.4-0.9,0.6-1.3c0.3-0.6,0.4-1,0.4-1.1L67-8.3z"/>
</g>
<g>
	<path class="st1" d="M21,9.3h3.5v18.3H21v-1.8h-0.1c-1.1,1.5-2.8,2.2-4.6,2.2c-1.5,0-2.9-0.6-4-1.7c-1.3-1.1-1.9-2.6-1.9-4.7v-9.3
		H8v7.1l0,0v8.2H4.5V12.3H0.6V9.3h3.8V7H4.4c0.1-2.1,0.7-3.5,1.9-4.6c1.1-1,2.6-1.6,4.1-1.7c3.1,0,4.4,0.7,5.7,2.4l-2.2,2.2
		c-0.7-0.6-1.6-0.9-2.6-0.9c-0.9,0-1.7,0.4-2.3,1C8.3,6.1,8,7.1,8,8.4v0.9h5.4l0,0h0.4v11c0,1.2,0.3,2.2,1,2.9
		c0.6,0.7,1.6,1.1,2.5,1.1c0.9,0,1.9-0.4,2.5-1.1c0.7-0.7,1-1.7,1-2.9V9.3z M35.2,9.1c-1.8-0.1-3.5,0.8-4.7,2.3h-0.1V9.3h-3.5v18.3
		h3.5V16.8c0-1.3,0.4-2.3,1.1-2.9c0.7-0.7,1.6-1.1,2.6-1c0.9,0,1.8,0.4,2.5,1c0.7,0.7,1,1.6,1,2.9v10.8h3.8V15.5
		c-0.3-2.1-0.8-3.7-2-4.8C38.2,9.7,36.7,9.2,35.2,9.1z M51.1,9.1c-1.8-0.1-3.5,0.8-4.7,2.3h-0.1V9.3h-3.5v18.3h3.5V16.8
		c0-1.3,0.4-2.3,1.1-2.9c0.7-0.7,1.6-1.1,2.6-1c0.9,0,1.8,0.4,2.5,1c0.7,0.7,1,1.6,1,2.9v10.8h3.5V15.5c0-2.1-0.6-3.7-1.8-4.8
		C54,9.7,52.6,9.2,51.1,9.1z M71,11.2c1.4,1.4,2.1,3.3,2.1,5.7v3.1H62.2l0,0c0,1.5,0.4,2.6,1.2,3.4c0.8,0.8,1.9,1.2,3,1.2
		c1.5,0,2.9-0.7,3.9-1.8l2.6,2.3c-1.8,2-4,3-6.4,3c-0.9,0-1.9-0.1-2.7-0.4c-0.5-0.1-0.9-0.4-1.3-0.6c-0.4-0.2-0.9-0.5-1.3-0.8
		c-0.8-0.8-1.5-1.8-1.8-2.9c-0.5-1.2-0.8-2.7-0.8-4.6c0-1.5,0.2-3.1,0.7-4.5c0.4-1.1,0.9-2.1,1.7-2.9c0.7-0.7,1.5-1.2,2.4-1.6
		c0.8-0.3,1.7-0.5,2.6-0.5C67.8,9,69.6,9.8,71,11.2z M69.7,17c-0.1-1.5-0.4-2.6-1.1-3.3c-1.5-1.4-3.8-1.4-5.3,0
		c-0.7,0.7-1.1,1.9-1.1,3.3H69.7z M78.4,23V2h-3.8v21.3c0,1.6,0.5,2.7,1.4,3.4c0.9,0.7,2.1,1.2,3.3,0.9h0.4l0.1-3.4
		C78.8,24.2,78.4,23.8,78.4,23z M94.4,13.8c0.4,3.1,0.4,6.3,0,9.4c-0.1,0.9-0.5,1.7-1,2.4c-0.5,0.7-1.2,1.3-1.9,1.7
		c-0.8,0.4-1.8,0.4-2.9,0.5c-1.9-0.1-3.4-0.6-4.5-1.9v1.8h-3.5V1.9L80.4,2H84v9.3c0.6-0.6,1.4-1.2,2.2-1.6c0.8-0.4,1.6-0.6,2.5-0.6
		c2.2,0.1,3.8,0.9,4.8,2.4C93.9,12.2,94.3,12.9,94.4,13.8z M91.1,18.5c0-0.7,0-1.4,0-2.2c-0.1-0.6-0.2-1.2-0.5-1.8
		c-0.2-0.5-0.6-1-1.1-1.3c-0.6-0.3-1.3-0.5-2-0.4l0,0c-0.7,0-1.4,0.1-1.9,0.5c-0.5,0.3-0.9,0.8-1.1,1.4c-0.2,0.6-0.4,1.2-0.4,1.8
		c-0.1,1.4-0.1,2.7,0,4c0.1,0.6,0.2,1.3,0.4,1.9c0.2,0.6,0.6,1,1.1,1.4c0.6,0.4,1.2,0.6,1.9,0.5c0.7,0,1.4-0.1,2-0.5
		c0.5-0.3,0.9-0.8,1.1-1.3c0.2-0.6,0.4-1.2,0.5-1.9C91.1,19.9,91.1,19.2,91.1,18.5z M109.6,15.1v12.5h-3.5v-1.5l-0.1,0h-0.1
		c-0.3,0.6-0.9,1.1-1.6,1.4c-0.9,0.4-1.9,0.5-2.9,0.4c-2,0-3.5-0.6-4.6-1.6c-1.1-1-1.7-2.5-1.7-4c-0.1-1.4,0.5-2.8,1.5-3.8
		c1-1,2.4-1.5,4.3-1.5h5.1v-2.1c0-1.6-1.2-2.4-3.7-2.4c-0.7,0-1.5,0.1-2.2,0.3c-0.5,0.2-1,0.6-1.3,1.1l-2.8-2.2
		c1.4-1.8,3.4-2.7,6-2.7c2.2,0,4,0.4,5.4,1.3C108.9,11.3,109.6,12.9,109.6,15.1z M106,19.9h-4.3c-2.1,0-3.1,0.8-3.1,2.2
		c0,0.6,0.3,1.2,0.8,1.6c0.5,0.5,1.4,0.7,2.6,0.7c1.5,0,2.6-0.1,3.2-0.6c0.6-0.4,0.9-1.3,0.9-2.7L106,19.9L106,19.9z M118.6,12.7
		c1.4,0,2.8,0.7,3.6,1.9l2.7-2.4c-0.8-0.9-1.7-1.7-2.7-2.3c-1.1-0.6-2.4-0.9-3.7-0.9c-2.1,0-4.1,0.7-5.5,2.2
		c-1.6,1.5-2.5,3.9-2.5,7.3c0.1,3.3,0.9,5.7,2.5,7.2c1.5,1.4,3.5,2.2,5.5,2.2c1.3,0,2.5-0.3,3.7-0.9c1.1-0.6,2-1.3,2.7-2.2l-2.7-2.4
		c-0.8,1.2-2.2,1.9-3.6,1.9c-3.1,0.1-4.6-1.9-4.7-5.7C114,14.6,115.5,12.7,118.6,12.7z M134.1,16.4l6.2-7.1h-4.3l-6.9,8.5l0,0V2
		h-3.5v25.6h3.5v-5.2l2.8-3.4l4.7,8.5h4.5L134.1,16.4z"/>
</g>
<polygon class="st2" points="152.2,19 148.1,19 146.1,19 142,19 147.1,27.9 147.1,27.9 147.1,27.9 "/>
</svg>
