<?xml version="1.0" encoding="utf-8"?>
<!-- Generator: Adobe Illustrator 23.0.4, SVG Export Plug-In . SVG Version: 6.00 Build 0)  -->
<svg version="1.1" id="Layer_1" xmlns="http://www.w3.org/2000/svg" xmlns:xlink="http://www.w3.org/1999/xlink" x="0px" y="0px"
	 viewBox="0 0 181 68" style="enable-background:new 0 0 181 68;" xml:space="preserve">
<style type="text/css">
	.st0{fill:#DD443E;}
	.st1{enable-background:new    ;}
	.st2{clip-path:url(#SVGID_2_);}
	.st3{clip-path:url(#SVGID_4_);}
	.st4{clip-path:url(#SVGID_6_);fill:#FFFFFE;}
	.st5{clip-path:url(#SVGID_8_);}
	.st6{clip-path:url(#SVGID_10_);fill:#FFFFFE;}
	.st7{clip-path:url(#SVGID_12_);}
	.st8{clip-path:url(#SVGID_14_);fill:#FFFFFE;}
	.st9{clip-path:url(#SVGID_16_);}
	.st10{clip-path:url(#SVGID_18_);fill:#FFFFFE;}
	.st11{fill-rule:evenodd;clip-rule:evenodd;fill:none;}
	.st12{clip-path:url(#SVGID_20_);}
	.st13{clip-path:url(#SVGID_22_);fill:#FFFFFE;}
	.st14{clip-path:url(#SVGID_24_);}
	.st15{clip-path:url(#SVGID_26_);enable-background:new    ;}
	.st16{clip-path:url(#SVGID_28_);}
	.st17{clip-path:url(#SVGID_30_);}
	.st18{clip-path:url(#SVGID_32_);fill:#FFFFFE;}
	.st19{clip-path:url(#SVGID_34_);}
	.st20{clip-path:url(#SVGID_36_);fill:#FFFFFE;}
	.st21{clip-path:url(#SVGID_38_);}
	.st22{clip-path:url(#SVGID_40_);fill:#FFFFFE;}
	.st23{clip-path:url(#SVGID_42_);}
	.st24{clip-path:url(#SVGID_44_);fill:#FFFFFE;}
	.st25{clip-path:url(#SVGID_46_);}
	.st26{clip-path:url(#SVGID_48_);fill:#DD443E;}
</style>
<g>
	<g>
		<path class="st0" d="M80,49.1v6.6c0,1,0.2,1.8,0.6,2.2c0.4,0.5,1.1,0.7,2,0.7c1.2,0,2.1-0.3,2.7-0.9c0.6-0.6,0.9-1.6,0.9-3v-5.6
			h0.9v10.2h-0.8l-0.2-1.4h-0.1c-0.7,1.1-1.8,1.6-3.5,1.6c-2.3,0-3.5-1.2-3.5-3.7v-6.7H80z"/>
		<path class="st0" d="M98.5,59.3v-6.6c0-1-0.2-1.8-0.6-2.2c-0.4-0.5-1.1-0.7-2-0.7c-1.2,0-2.1,0.3-2.7,0.9c-0.6,0.6-0.9,1.6-0.9,3
			v5.6h-0.9V49.1h0.8l0.2,1.4h0.1c0.7-1.1,1.8-1.6,3.5-1.6c2.3,0,3.5,1.2,3.5,3.7v6.7H98.5z"/>
		<path class="st0" d="M103.3,46.2c0-0.6,0.2-0.9,0.6-0.9c0.2,0,0.3,0.1,0.5,0.2c0.1,0.2,0.2,0.4,0.2,0.7c0,0.3-0.1,0.5-0.2,0.7
			c-0.1,0.2-0.3,0.2-0.5,0.2C103.5,47.2,103.3,46.8,103.3,46.2z M104.4,59.3h-0.9V49.1h0.9V59.3z"/>
		<path class="st0" d="M110.8,59.3l-4-10.2h1l2.6,7c0.4,0.9,0.6,1.7,0.8,2.3h0.1c0.3-0.9,0.5-1.6,0.8-2.4l2.6-6.9h1l-4,10.2H110.8z"
			/>
		<path class="st0" d="M122.2,59.5c-1.5,0-2.6-0.5-3.5-1.4c-0.8-0.9-1.2-2.2-1.2-3.8c0-1.6,0.4-2.9,1.2-3.9c0.8-1,1.9-1.5,3.2-1.5
			c1.2,0,2.2,0.4,2.9,1.3c0.7,0.8,1,2,1,3.4v0.8h-7.4c0,1.4,0.3,2.5,1,3.2c0.6,0.7,1.6,1.1,2.8,1.1c0.6,0,1.1,0,1.5-0.1
			c0.4-0.1,1-0.3,1.7-0.5v0.8c-0.6,0.3-1.1,0.4-1.6,0.5C123.3,59.5,122.8,59.5,122.2,59.5z M121.9,49.7c-1,0-1.8,0.3-2.4,1
			c-0.6,0.6-0.9,1.6-1,2.8h6.3c0-1.2-0.3-2.1-0.8-2.8C123.6,50,122.9,49.7,121.9,49.7z"/>
		<path class="st0" d="M133.4,48.9c0.4,0,0.9,0,1.4,0.1l-0.2,0.9c-0.4-0.1-0.9-0.2-1.3-0.2c-0.9,0-1.6,0.4-2.1,1.1
			c-0.6,0.7-0.8,1.7-0.8,2.8v5.6h-0.9V49.1h0.8l0.1,1.8h0.1c0.4-0.8,0.9-1.3,1.3-1.6C132.2,49,132.7,48.9,133.4,48.9z"/>
		<path class="st0" d="M144,56.6c0,0.9-0.3,1.6-1,2.1c-0.7,0.5-1.7,0.7-3,0.7c-1.4,0-2.5-0.2-3.3-0.6v-1c1,0.5,2.1,0.8,3.3,0.8
			c1,0,1.8-0.2,2.3-0.5c0.5-0.3,0.8-0.8,0.8-1.3c0-0.5-0.2-0.9-0.6-1.3c-0.4-0.4-1.1-0.7-2.1-1c-1-0.4-1.7-0.7-2.2-1
			c-0.4-0.3-0.7-0.6-0.9-0.9c-0.2-0.3-0.3-0.7-0.3-1.2c0-0.8,0.3-1.4,1-1.8c0.6-0.4,1.5-0.7,2.7-0.7c1.1,0,2.2,0.2,3.1,0.6l-0.3,0.8
			c-1-0.4-1.9-0.6-2.8-0.6c-0.8,0-1.5,0.1-2,0.4c-0.5,0.3-0.7,0.7-0.7,1.1c0,0.5,0.2,1,0.6,1.3c0.4,0.3,1.1,0.7,2.2,1.1
			c0.9,0.3,1.6,0.6,2,0.9c0.4,0.3,0.7,0.6,0.9,0.9C143.9,55.8,144,56.2,144,56.6z"/>
		<path class="st0" d="M147.2,46.2c0-0.6,0.2-0.9,0.6-0.9c0.2,0,0.3,0.1,0.5,0.2c0.1,0.2,0.2,0.4,0.2,0.7c0,0.3-0.1,0.5-0.2,0.7
			c-0.1,0.2-0.3,0.2-0.5,0.2C147.4,47.2,147.2,46.8,147.2,46.2z M148.3,59.3h-0.9V49.1h0.9V59.3z"/>
		<path class="st0" d="M155.1,58.7c0.6,0,1.1-0.1,1.5-0.2v0.8c-0.5,0.2-1,0.2-1.6,0.2c-0.9,0-1.6-0.2-2-0.7
			c-0.4-0.5-0.6-1.2-0.6-2.3v-6.6H151v-0.5l1.5-0.4l0.5-2.3h0.5v2.5h3v0.8h-3v6.5c0,0.8,0.1,1.4,0.4,1.7
			C154.1,58.5,154.5,58.7,155.1,58.7z"/>
		<path class="st0" d="M157.9,49.1h1l2.2,5.7c0.7,1.8,1.1,3,1.3,3.6h0.1c0.3-0.8,0.7-2,1.3-3.6l2.2-5.7h1L162.2,61
			c-0.4,1-0.7,1.6-0.9,2c-0.3,0.3-0.5,0.6-0.9,0.8c-0.3,0.2-0.7,0.3-1.2,0.3c-0.4,0-0.8-0.1-1.2-0.2v-0.8c0.4,0.1,0.8,0.2,1.2,0.2
			c0.3,0,0.6-0.1,0.8-0.2c0.2-0.2,0.5-0.4,0.7-0.7c0.2-0.3,0.4-0.8,0.7-1.5c0.3-0.7,0.4-1.1,0.5-1.3L157.9,49.1z"/>
	</g>
	<g class="st1">
		<g>
			<defs>
				<rect id="SVGID_1_" x="2.7" y="11.7" width="85" height="32.9"/>
			</defs>
			<clipPath id="SVGID_2_">
				<use xlink:href="#SVGID_1_"  style="overflow:visible;"/>
			</clipPath>
			<g class="st2">
				<defs>
					<path id="SVGID_3_" d="M33.4,21.7h4.2V24h0.1c1.4-1.7,3.2-2.5,5.4-2.5c1.7,0,3.3,0.6,4.8,1.9c1.4,1.3,2.2,3.1,2.2,5.6v14.3
						h-4.2V30.4c0-1.5-0.4-2.6-1.2-3.4c-0.8-0.8-1.8-1.2-3-1.2c-1.2,0-2.2,0.4-3,1.2c-0.8,0.8-1.2,1.9-1.2,3.4v12.8h-4.2L33.4,21.7
						L33.4,21.7"/>
				</defs>
				<clipPath id="SVGID_4_">
					<use xlink:href="#SVGID_3_"  style="overflow:visible;"/>
				</clipPath>
				<g class="st3">
					<defs>
						<rect id="SVGID_5_" x="2.7" y="11.7" width="85" height="31.7"/>
					</defs>
					<clipPath id="SVGID_6_">
						<use xlink:href="#SVGID_5_"  style="overflow:visible;"/>
					</clipPath>
					<rect x="27.8" y="15.8" class="st4" width="28" height="33.1"/>
				</g>
			</g>
			<g class="st2">
				<defs>
					<path id="SVGID_7_" d="M26.5,21.7v12.8c0,1.4-0.4,2.6-1.2,3.4c-0.8,0.8-1.7,1.2-3,1.2c-1.2,0-2.2-0.4-3-1.2
						c-0.8-0.8-1.2-1.9-1.2-3.4V21.7h-6.9v-1.1c0-1.5,0.4-2.6,1.2-3.4c0.8-0.8,1.5-1.2,2.7-1.2c1.2,0,2.1,0.2,3,1l2.6-2.5
						c-1.6-2-3.1-2.8-6.7-2.8c-1.7,0-3.3,0.6-4.8,1.9c-1.4,1.2-2.1,3-2.2,5.3h0v2.8H2.7V25h4.4v18.1h4.2V25H14v11
						c0,2.4,0.8,4.2,2.3,5.5c1.4,1.3,3,1.9,4.7,1.9c2.2,0,4-0.8,5.4-2.5h0.1v2.3h4.2V21.7H26.5"/>
				</defs>
				<clipPath id="SVGID_8_">
					<use xlink:href="#SVGID_7_"  style="overflow:visible;"/>
				</clipPath>
				<g class="st5">
					<defs>
						<rect id="SVGID_9_" x="2.7" y="11.7" width="85" height="31.7"/>
					</defs>
					<clipPath id="SVGID_10_">
						<use xlink:href="#SVGID_9_"  style="overflow:visible;"/>
					</clipPath>
					<rect x="-3" y="6.1" class="st6" width="39.3" height="43"/>
				</g>
			</g>
			<g class="st2">
				<defs>
					<path id="SVGID_11_" d="M52,21.7h4.2V24h0.1c1.4-1.7,3.2-2.5,5.4-2.5c1.7,0,3.3,0.6,4.8,1.9c1.4,1.3,2.2,3.1,2.2,5.6v14.3h-4.2
						V30.4c0-1.5-0.4-2.6-1.2-3.4c-0.8-0.8-1.8-1.2-3-1.2c-1.2,0-2.2,0.4-3,1.2c-0.8,0.8-1.2,1.9-1.2,3.4v12.8h-4.2L52,21.7L52,21.7
						"/>
				</defs>
				<clipPath id="SVGID_12_">
					<use xlink:href="#SVGID_11_"  style="overflow:visible;"/>
				</clipPath>
				<g class="st7">
					<defs>
						<rect id="SVGID_13_" x="2.7" y="11.7" width="85" height="31.7"/>
					</defs>
					<clipPath id="SVGID_14_">
						<use xlink:href="#SVGID_13_"  style="overflow:visible;"/>
					</clipPath>
					<rect x="46.4" y="15.8" class="st8" width="28" height="33.1"/>
				</g>
			</g>
			<g class="st2">
				<defs>
					<path id="SVGID_15_" d="M83.5,30.5c-0.1-1.7-0.5-2.9-1.3-3.8c-0.8-0.8-1.8-1.2-3.1-1.2s-2.3,0.4-3.1,1.2
						c-0.8,0.9-1.2,2.1-1.3,3.8H83.5z M74.7,34.1c0,1.7,0.5,3,1.5,3.9c0.9,0.9,2.1,1.4,3.5,1.4c1.7,0,3.2-0.7,4.6-2.1l3,2.7
						c-2.1,2.3-4.6,3.5-7.5,3.5c-1.1,0-2.2-0.2-3.2-0.5c-0.5-0.2-1-0.4-1.5-0.7c-0.5-0.3-1-0.6-1.5-1c-0.9-0.8-1.6-1.9-2.2-3.3
						c-0.6-1.4-0.9-3.2-0.9-5.4c0-2.1,0.3-3.9,0.8-5.3c0.5-1.4,1.2-2.6,2-3.4c0.8-0.8,1.8-1.4,2.8-1.8c1-0.4,2-0.6,3-0.6
						c2.4,0,4.4,0.8,6.1,2.4c1.7,1.6,2.5,3.8,2.6,6.7v3.5H74.7z"/>
				</defs>
				<clipPath id="SVGID_16_">
					<use xlink:href="#SVGID_15_"  style="overflow:visible;"/>
				</clipPath>
				<g class="st9">
					<defs>
						<rect id="SVGID_17_" x="2.7" y="11.7" width="85" height="31.7"/>
					</defs>
					<clipPath id="SVGID_18_">
						<use xlink:href="#SVGID_17_"  style="overflow:visible;"/>
					</clipPath>
					<rect x="64.8" y="15.8" class="st10" width="28.6" height="33.3"/>
				</g>
			</g>
		</g>
	</g>
	<rect x="2.7" y="11.8" class="st11" width="85" height="31.7"/>
	<g>
		<defs>
			<path id="SVGID_19_" d="M94.5,43.4h-0.4c-1.5,0-2.7-0.4-3.7-1.1c-1-0.8-1.5-2.1-1.5-3.9V14H93V38c0,1,0.5,1.4,1.5,1.4"/>
		</defs>
		<clipPath id="SVGID_20_">
			<use xlink:href="#SVGID_19_"  style="overflow:visible;"/>
		</clipPath>
		<g class="st12">
			<defs>
				<rect id="SVGID_21_" x="-0.7" y="8.3" width="184.8" height="60.1"/>
			</defs>
			<clipPath id="SVGID_22_">
				<use xlink:href="#SVGID_21_"  style="overflow:visible;"/>
			</clipPath>
			<rect x="83.2" y="8.3" class="st13" width="17" height="40.8"/>
		</g>
	</g>
	<g>
		<defs>
			<rect id="SVGID_23_" x="96" y="12.9" width="51.5" height="30.6"/>
		</defs>
		<clipPath id="SVGID_24_">
			<use xlink:href="#SVGID_23_"  style="overflow:visible;"/>
		</clipPath>
		<g class="st14">
			<defs>
				<rect id="SVGID_25_" x="-0.7" y="8.3" width="184.8" height="60.1"/>
			</defs>
			<clipPath id="SVGID_26_">
				<use xlink:href="#SVGID_25_"  style="overflow:visible;"/>
			</clipPath>
			<g class="st15">
				<g>
					<defs>
						<rect id="SVGID_27_" x="95.7" y="12.8" width="52.1" height="30.6"/>
					</defs>
					<clipPath id="SVGID_28_">
						<use xlink:href="#SVGID_27_"  style="overflow:visible;"/>
					</clipPath>
					<g class="st16">
						<defs>
							<path id="SVGID_29_" d="M104.2,25.6c-0.9,0-1.7,0.2-2.2,0.6c-0.6,0.4-1,0.9-1.3,1.6c-0.3,0.7-0.4,1.4-0.5,2.1
								c-0.1,0.8-0.1,1.6-0.1,2.4c0,0.8,0,1.5,0.1,2.3c0.1,0.8,0.2,1.5,0.5,2.2c0.3,0.7,0.7,1.2,1.3,1.6c0.5,0.4,1.3,0.6,2.2,0.6
								c1,0,1.8-0.2,2.3-0.6c0.6-0.4,1-0.9,1.2-1.5c0.3-0.7,0.4-1.4,0.5-2.2c0-0.8,0-1.6,0-2.4c0-0.9,0-1.7,0-2.5
								c-0.1-0.8-0.3-1.5-0.5-2.1c-0.2-0.7-0.6-1.2-1.2-1.5C106,25.8,105.2,25.6,104.2,25.6z M96,12.9h4.2v11
								c0.8-0.8,1.6-1.4,2.5-1.9c0.8-0.5,1.8-0.7,2.9-0.7c2.5,0.1,4.4,1,5.6,2.8c0.6,0.7,1,1.6,1.2,2.7c0.2,1.1,0.3,2.9,0.3,5.5
								c0,2.6-0.1,4.4-0.3,5.5c-0.2,1.2-0.6,2.1-1.2,2.8c-0.6,0.8-1.3,1.5-2.3,2c-0.9,0.5-2.1,0.5-3.4,0.6c-2.2-0.1-3.9-0.6-5.3-2.3
								v2.3H96L96,12.9L96,12.9z"/>
						</defs>
						<clipPath id="SVGID_30_">
							<use xlink:href="#SVGID_29_"  style="overflow:visible;"/>
						</clipPath>
						<g class="st17">
							<defs>
								<rect id="SVGID_31_" x="95.7" y="12.8" width="52.1" height="30.6"/>
							</defs>
							<clipPath id="SVGID_32_">
								<use xlink:href="#SVGID_31_"  style="overflow:visible;"/>
							</clipPath>
							<rect x="90.3" y="7.2" class="st18" width="27.9" height="41.7"/>
						</g>
					</g>
					<g class="st16">
						<defs>
							<path id="SVGID_33_" d="M125.7,34h-5c-2.4,0.1-3.6,0.9-3.6,2.6c0,0.7,0.3,1.4,0.9,1.9c0.6,0.6,1.6,0.9,3,0.9
								c1.7,0,3-0.2,3.7-0.6c0.7-0.5,1-1.5,1-3.1V34z M125.7,41.3L125.7,41.3c-0.5,0.7-1.1,1.3-1.9,1.6c-0.8,0.4-1.9,0.5-3.3,0.5
								c-2.3,0-4.1-0.7-5.3-1.9c-1.3-1.2-2-2.8-2-4.7c0-1.8,0.6-3.3,1.7-4.5c1.1-1.2,2.8-1.8,5-1.9h5.8v-2.3c0-1.9-1.4-2.8-4.3-2.8
								c-1,0-1.9,0.1-2.5,0.3c-0.6,0.3-1.1,0.7-1.5,1.3l-3.3-2.6c1.6-2.2,3.9-3.2,7-3.1c2.6,0,4.7,0.5,6.2,1.5
								c1.6,1.1,2.3,2.9,2.4,5.6v14.7h-4.2L125.7,41.3L125.7,41.3z"/>
						</defs>
						<clipPath id="SVGID_34_">
							<use xlink:href="#SVGID_33_"  style="overflow:visible;"/>
						</clipPath>
						<g class="st19">
							<defs>
								<rect id="SVGID_35_" x="95.7" y="12.8" width="52.1" height="30.6"/>
							</defs>
							<clipPath id="SVGID_36_">
								<use xlink:href="#SVGID_35_"  style="overflow:visible;"/>
							</clipPath>
							<rect x="107.5" y="15.7" class="st20" width="28" height="33.5"/>
						</g>
					</g>
					<g class="st16">
						<defs>
							<path id="SVGID_37_" d="M147.5,39.7c-0.9,1.1-2,2-3.2,2.6c-1.2,0.7-2.6,1.1-4.3,1.1c-2.4,0-4.6-0.9-6.4-2.6
								c-1.9-1.7-2.9-4.5-3-8.4c0.1-3.9,1-6.8,3-8.5c1.8-1.7,4-2.6,6.4-2.6c1.6,0,3,0.4,4.2,1c1.2,0.7,2.3,1.6,3.2,2.7l-3.1,2.8
								c-1.1-1.5-2.5-2.2-4.2-2.3c-3.5-0.1-5.3,2.2-5.4,6.8c0.1,4.5,1.8,6.8,5.4,6.7c1.8,0,3.2-0.8,4.2-2.3L147.5,39.7"/>
						</defs>
						<clipPath id="SVGID_38_">
							<use xlink:href="#SVGID_37_"  style="overflow:visible;"/>
						</clipPath>
						<g class="st21">
							<defs>
								<rect id="SVGID_39_" x="95.7" y="12.8" width="52.1" height="30.6"/>
							</defs>
							<clipPath id="SVGID_40_">
								<use xlink:href="#SVGID_39_"  style="overflow:visible;"/>
							</clipPath>
							<rect x="125" y="15.7" class="st22" width="28.2" height="33.5"/>
						</g>
					</g>
				</g>
			</g>
		</g>
	</g>
	<g>
		<defs>
			<polyline id="SVGID_41_" points="147.8,14 147.8,43.4 151.9,43.4 151.9,37.4 155.2,33.6 160.7,43.4 165.9,43.4 157.8,30.6 
				165,22.5 160,22.5 152,32.3 151.9,32.3 151.9,14 147.8,14 			"/>
		</defs>
		<clipPath id="SVGID_42_">
			<use xlink:href="#SVGID_41_"  style="overflow:visible;"/>
		</clipPath>
		<g class="st23">
			<defs>
				<rect id="SVGID_43_" x="-0.7" y="8.3" width="184.8" height="60.1"/>
			</defs>
			<clipPath id="SVGID_44_">
				<use xlink:href="#SVGID_43_"  style="overflow:visible;"/>
			</clipPath>
			<rect x="142.1" y="8.3" class="st24" width="29.5" height="40.8"/>
		</g>
	</g>
	<g>
		<defs>
			<polyline id="SVGID_45_" points="175,33.2 163.7,33.2 169.3,43.4 169.3,43.4 169.3,43.4 175,33.2 			"/>
		</defs>
		<clipPath id="SVGID_46_">
			<use xlink:href="#SVGID_45_"  style="overflow:visible;"/>
		</clipPath>
		<g class="st25">
			<defs>
				<rect id="SVGID_47_" x="-0.7" y="8.3" width="184.8" height="60.1"/>
			</defs>
			<clipPath id="SVGID_48_">
				<use xlink:href="#SVGID_47_"  style="overflow:visible;"/>
			</clipPath>
			<rect x="158" y="27.6" class="st26" width="22.7" height="21.5"/>
		</g>
	</g>
</g>
</svg>
