<svg width="256" height="44" viewBox="0 0 256 44" fill="none" xmlns="http://www.w3.org/2000/svg">
<g clip-path="url(#clip0)">
<path fill-rule="evenodd" clip-rule="evenodd" d="M6.6446 17.1221C4.03584 12.6918 7.23002 7.10416 12.3714 7.10416H17.875C18.5078 7.10416 19.0209 7.61717 19.0209 8.25C19.0209 8.88282 18.5078 9.39583 17.875 9.39583H12.3714C9.00289 9.39583 6.91016 13.0567 8.61934 15.9593L18.2477 32.3107C19.9317 35.1705 24.068 35.1704 25.7519 32.3105L28.4698 27.6942C28.7909 27.1489 29.4932 26.9671 30.0386 27.2882C30.5839 27.6093 30.7657 28.3116 30.4446 28.8569L27.7267 33.4732C25.1566 37.8384 18.8433 37.8385 16.273 33.4735L6.6446 17.1221ZM24.9792 8.25C24.9792 7.61717 25.4922 7.10416 26.125 7.10416H31.6354C36.775 7.10416 39.9694 12.6883 37.3642 17.1187L34.5277 21.9425C34.207 22.488 33.5047 22.6701 32.9592 22.3494C32.4137 22.0286 32.2315 21.3263 32.5523 20.7808L35.3888 15.9571C37.0956 13.0544 35.0027 9.39583 31.6354 9.39583H26.125C25.4922 9.39583 24.9792 8.88282 24.9792 8.25Z" fill="white"/>
<path d="M32.2096 15.4862L23.7761 29.768C22.9779 31.1197 21.0224 31.1197 20.2242 29.768L11.7907 15.4862C10.9788 14.1113 11.97 12.375 13.5667 12.375H30.4336C32.0303 12.375 33.0215 14.1113 32.2096 15.4862Z" fill="#DD4122"/>
<path d="M69.1523 26.9599C69.1523 28.6103 68.5557 29.9053 67.3623 30.8447C66.1689 31.7842 64.5228 32.2539 62.4238 32.2539C60.3249 32.2539 58.6068 31.928 57.2695 31.2764V28.4072C58.1159 28.805 59.013 29.1181 59.9609 29.3467C60.9173 29.5752 61.806 29.6894 62.627 29.6894C63.8288 29.6894 64.7132 29.4609 65.2803 29.0039C65.8558 28.5469 66.1436 27.9333 66.1436 27.1631C66.1436 26.4691 65.8812 25.8808 65.3564 25.3984C64.8317 24.916 63.7484 24.3447 62.1064 23.6846C60.4137 22.999 59.2204 22.2161 58.5264 21.3359C57.8324 20.4557 57.4854 19.3978 57.4854 18.1621C57.4854 16.6133 58.0355 15.3945 59.1357 14.5058C60.236 13.6172 61.7129 13.1728 63.5664 13.1728C65.3438 13.1728 67.1126 13.5622 68.873 14.3408L67.9082 16.8164C66.2578 16.1224 64.7852 15.7754 63.4902 15.7754C62.5085 15.7754 61.7637 15.9912 61.2559 16.4228C60.748 16.846 60.4941 17.4088 60.4941 18.1113C60.4941 18.5937 60.5957 19.0084 60.7988 19.3555C61.002 19.694 61.3363 20.0156 61.8018 20.3203C62.2673 20.625 63.1051 21.027 64.3154 21.5264C65.6781 22.0934 66.6768 22.6224 67.3115 23.1133C67.9463 23.6042 68.4118 24.1585 68.708 24.7764C69.0042 25.3942 69.1523 26.1221 69.1523 26.9599ZM77.4683 29.8672C78.7209 29.8672 79.618 29.5075 80.1597 28.7881C80.7098 28.0602 80.9849 26.9642 80.9849 25.5V25.0303C80.9849 23.2952 80.7014 22.0469 80.1343 21.2851C79.5757 20.5234 78.6701 20.1426 77.4175 20.1426C76.3511 20.1426 75.5386 20.5657 74.98 21.4121C74.4214 22.2584 74.1421 23.473 74.1421 25.0556C74.1421 28.2633 75.2508 29.8672 77.4683 29.8672ZM76.6177 32.2539C74.8827 32.2539 73.5243 31.6191 72.5425 30.3496C71.5607 29.0716 71.0698 27.29 71.0698 25.0049C71.0698 22.7197 71.5692 20.9339 72.5679 19.6474C73.5666 18.3525 74.9419 17.7051 76.6939 17.7051C77.5741 17.7051 78.3612 17.8701 79.0552 18.2002C79.7577 18.5218 80.384 19.055 80.9341 19.7998H81.0357L81.3657 17.959H83.8413V38.2461H80.8452V32.292C80.8452 31.9196 80.8622 31.526 80.896 31.1113C80.9299 30.6966 80.9595 30.3792 80.9849 30.1592H80.8198C79.9396 31.5556 78.5389 32.2539 76.6177 32.2539ZM97.4893 32L97.0704 30.1592H96.918C96.5033 30.8109 95.9108 31.3229 95.1407 31.6953C94.3789 32.0677 93.5072 32.2539 92.5254 32.2539C90.8243 32.2539 89.5547 31.8307 88.7168 30.9844C87.8789 30.138 87.46 28.8558 87.46 27.1377V17.959H90.4688V26.6172C90.4688 27.692 90.6888 28.5003 91.1289 29.042C91.569 29.5752 92.2588 29.8418 93.1983 29.8418C94.4509 29.8418 95.3692 29.4694 95.9532 28.7246C96.5456 27.9713 96.8418 26.7145 96.8418 24.9541V17.959H99.8379V32H97.4893ZM106.554 32H103.571V17.959H106.554V32ZM103.393 14.2392C103.393 13.706 103.537 13.2956 103.825 13.0078C104.121 12.72 104.54 12.5762 105.082 12.5762C105.606 12.5762 106.013 12.72 106.3 13.0078C106.597 13.2956 106.745 13.706 106.745 14.2392C106.745 14.7471 106.597 15.1491 106.3 15.4453C106.013 15.7331 105.606 15.8769 105.082 15.8769C104.54 15.8769 104.121 15.7331 103.825 15.4453C103.537 15.1491 103.393 14.7471 103.393 14.2392ZM119.694 32H109.043V30.1592L116.14 20.2441H109.475V17.959H119.491V20.041L112.547 29.7148H119.694V32ZM130.258 32H128.963V13.4394H139.132V14.6328H130.258V22.5039H138.637V23.7099H130.258V32ZM142.268 18.2002V27.1377C142.268 28.5257 142.56 29.5371 143.144 30.1719C143.728 30.7982 144.634 31.1113 145.861 31.1113C147.503 31.1113 148.709 30.6966 149.479 29.8672C150.258 29.0377 150.647 27.6878 150.647 25.8174V18.2002H151.891V32H150.825L150.596 30.0957H150.52C149.623 31.5345 148.028 32.2539 145.734 32.2539C142.594 32.2539 141.024 30.5739 141.024 27.2139V18.2002H142.268ZM165.615 32V23.0498C165.615 21.6618 165.323 20.6546 164.739 20.0283C164.155 19.3935 163.25 19.0762 162.023 19.0762C160.372 19.0762 159.162 19.4951 158.392 20.333C157.63 21.1624 157.249 22.5124 157.249 24.3828V32H155.992V18.2002H157.059L157.3 20.0918H157.376C158.273 18.653 159.869 17.9336 162.162 17.9336C165.294 17.9336 166.86 19.6136 166.86 22.9736V32H165.615ZM180.431 32V23.0498C180.431 21.6618 180.139 20.6546 179.555 20.0283C178.971 19.3935 178.066 19.0762 176.839 19.0762C175.188 19.0762 173.978 19.4951 173.208 20.333C172.446 21.1624 172.065 22.5124 172.065 24.3828V32H170.808V18.2002H171.875L172.116 20.0918H172.192C173.089 18.653 174.685 17.9336 176.978 17.9336C180.11 17.9336 181.675 19.6136 181.675 22.9736V32H180.431ZM191.197 32.2539C189.192 32.2539 187.626 31.6361 186.5 30.4004C185.383 29.1647 184.824 27.4339 184.824 25.208C184.824 23.0075 185.366 21.2471 186.449 19.9267C187.533 18.598 188.993 17.9336 190.829 17.9336C192.454 17.9336 193.737 18.5006 194.676 19.6348C195.615 20.7689 196.085 22.3092 196.085 24.2558V25.2715H186.145C186.162 27.1673 186.602 28.6146 187.465 29.6133C188.337 30.612 189.581 31.1113 191.197 31.1113C191.985 31.1113 192.674 31.0563 193.267 30.9463C193.868 30.8362 194.625 30.5993 195.539 30.2353V31.3779C194.761 31.7165 194.041 31.945 193.381 32.0635C192.721 32.1904 191.993 32.2539 191.197 32.2539ZM190.829 19.0508C189.501 19.0508 188.434 19.4909 187.63 20.3711C186.826 21.2428 186.356 22.5039 186.221 24.1543H194.752C194.752 22.5547 194.405 21.3063 193.711 20.4092C193.017 19.5036 192.057 19.0508 190.829 19.0508ZM200.631 32H199.374V12.2461H200.631V32ZM210.572 17.9336C212.501 17.9336 213.953 18.543 214.926 19.7617C215.908 20.972 216.399 22.7451 216.399 25.081C216.399 27.3747 215.882 29.1435 214.85 30.3877C213.826 31.6318 212.383 32.2539 210.521 32.2539C209.539 32.2539 208.655 32.0508 207.867 31.6445C207.08 31.2383 206.458 30.6627 206.001 29.918H205.887L205.531 32H204.744V12.2461H206.001V17.2099C206.001 17.9547 205.984 18.6403 205.95 19.2666L205.912 20.3457H206.001C206.526 19.5163 207.156 18.9069 207.893 18.5176C208.638 18.1282 209.531 17.9336 210.572 17.9336ZM210.546 19.0762C208.921 19.0762 207.757 19.5417 207.055 20.4726C206.352 21.4036 206.001 22.9398 206.001 25.081V25.2969C206.001 27.3789 206.365 28.8727 207.093 29.7783C207.829 30.6839 208.972 31.1367 210.521 31.1367C212.027 31.1367 213.161 30.612 213.923 29.5625C214.685 28.5045 215.066 27.0023 215.066 25.0556C215.066 21.0693 213.559 19.0762 210.546 19.0762ZM228.092 32L227.774 29.8164H227.673C226.979 30.7051 226.263 31.3356 225.527 31.708C224.799 32.0719 223.936 32.2539 222.937 32.2539C221.583 32.2539 220.529 31.9069 219.776 31.2129C219.023 30.5189 218.646 29.5583 218.646 28.331C218.646 26.9853 219.205 25.9401 220.322 25.1953C221.448 24.4505 223.073 24.057 225.197 24.0146L227.825 23.9385V23.0244C227.825 21.7125 227.558 20.7223 227.025 20.0537C226.492 19.3851 225.633 19.0508 224.448 19.0508C223.17 19.0508 221.845 19.4062 220.474 20.1172L220.005 19.0254C221.52 18.3144 223.018 17.959 224.499 17.959C226.014 17.959 227.144 18.3525 227.888 19.1396C228.642 19.9267 229.018 21.154 229.018 22.8213V32H228.092ZM223.013 31.1113C224.486 31.1113 225.646 30.6924 226.492 29.8545C227.347 29.0081 227.774 27.8359 227.774 26.3379V24.9795L225.362 25.081C223.424 25.1741 222.04 25.4788 221.211 25.9951C220.39 26.5029 219.979 27.2985 219.979 28.3818C219.979 29.2451 220.242 29.918 220.766 30.4004C221.3 30.8743 222.049 31.1113 223.013 31.1113ZM238.49 32.2539C236.518 32.2539 234.973 31.6318 233.856 30.3877C232.739 29.1435 232.18 27.4085 232.18 25.1826C232.18 22.8974 232.76 21.1201 233.919 19.8506C235.079 18.5726 236.666 17.9336 238.68 17.9336C239.873 17.9336 241.016 18.1409 242.108 18.5556L241.765 19.6728C240.572 19.275 239.535 19.0762 238.655 19.0762C236.962 19.0762 235.68 19.6009 234.808 20.6504C233.936 21.6914 233.5 23.1937 233.5 25.1572C233.5 27.0192 233.936 28.4792 234.808 29.5371C235.68 30.5866 236.898 31.1113 238.464 31.1113C239.717 31.1113 240.88 30.887 241.955 30.4385V31.6064C241.075 32.0381 239.92 32.2539 238.49 32.2539ZM246.056 25.9443L253.102 18.2002H254.626L249.192 24.0908L255.096 32H253.585L248.342 25.0303L246.082 27.0869V32H244.825V12.2461H246.082V22.1484L245.993 25.9443H246.056Z" fill="white"/>
</g>
<defs>
<clipPath id="clip0">
<rect width="256" height="44" fill="white"/>
</clipPath>
</defs>
</svg>
