<svg xmlns="http://www.w3.org/2000/svg" width="171" height="31.7" viewBox="0 0 171 31.7"><path d="M23.5 22.7c0 1.4-.4 2.6-1.2 3.4s-1.7 1.2-3 1.2-2.2-.4-3-1.2c-.8-.8-1.2-2-1.2-3.4V9.9H8.5v-1c0-1.6.4-2.6 1.2-3.4s1.4-1.2 2.7-1.2c1.2 0 2.1.3 3 1l2.5-2.5C16.3.8 14.8 0 11.2 0 9.5 0 8 .7 6.5 1.8 5.2 3 4.4 4.8 4.3 7v2.8H0v3.3h4.3v18.3h4.2V13.2h2.7v11c0 2.3.8 4.2 2.2 5.5s3 1.8 4.7 2c2.2 0 3.9-.8 5.4-2.5v2.2h4.2V9.9h-4.2v12.8zm16.6-13c-2.2 0-4 .8-5.4 2.5h-.1V9.9h-4v21.4h4.2V18.5c0-1.6.4-2.6 1.2-3.4s1.7-1.2 3-1.2 2.2.4 3 1.2c.8.8 1.2 2 1.2 3.4v12.8h4.2V17.1c-.1-2.5-.8-4.3-2.2-5.6-1.7-1.2-3.4-1.8-5.1-1.8zm18.5 0c-2.2 0-4 .8-5.4 2.5h-.1V9.9h-4v21.4h4.2V18.5c0-1.6.4-2.6 1.2-3.4.8-.8 1.7-1.2 3-1.2s2.2.4 3 1.2c.8.8 1.2 2 1.2 3.4v12.8h4.2V17.1c-.1-2.5-.8-4.3-2.2-5.6-1.8-1.2-3.4-1.8-5.1-1.8zm17.1.1c-1 0-2 .1-3 .5s-2 1-2.7 1.8c-.8.8-1.4 2-2 3.4s-.8 3.1-.8 5.2c0 2.2.3 3.9.9 5.4.5 1.4 1.3 2.5 2.1 3.4.4.4.9.7 1.4 1 .5.3 1 .5 1.6.7 1 .3 2.1.5 3.3.5 2.9 0 5.4-1.2 7.4-3.5l-3-2.7c-1.3 1.4-2.9 2.1-4.6 2.1-1.4 0-2.6-.5-3.5-1.4-.9-.9-1.4-2.2-1.4-3.9h12.9v-3.5c0-2.9-.9-5.1-2.5-6.7-1.7-1.5-3.7-2.3-6.1-2.3zm-4.3 9c.1-1.7.5-3 1.3-3.8.8-.8 1.8-1.2 3.1-1.2s2.2.4 3.1 1.2c.8.8 1.3 2.1 1.3 3.8h-8.8zm18.8 7V1.3H86v24.9c0 1.8.5 3.3 1.6 4 1 .8 2.2 1.2 3.8 1.2h.4v-4c-1.1 0-1.6-.5-1.6-1.6zm17.5-13.3c-1.2-1.8-3-2.7-5.6-2.9-1 0-2 .3-2.9.7-.9.5-1.7 1.2-2.5 1.8V1.3h-4v30h4.2v-2.2c1.4 1.6 3.1 2.2 5.2 2.2 1.3 0 2.5 0 3.4-.5.9-.5 1.7-1.2 2.2-2 .5-.7.9-1.6 1.2-2.7s.3-2.9.3-5.5-.1-4.4-.3-5.5c-.2-1-.6-1.9-1.2-2.6zM104.9 23c-.1.8-.3 1.6-.5 2.2-.3.7-.7 1.2-1.2 1.6-.5.4-1.3.5-2.3.5-.9 0-1.7-.3-2.2-.7-.5-.4-1-.9-1.3-1.6s-.4-1.4-.5-2.2-.1-1.6-.1-2.3c0-.8 0-1.6.1-2.3s.3-1.4.5-2.1c.3-.7.7-1.2 1.3-1.6.5-.4 1.3-.5 2.2-.5 1 0 1.8.1 2.3.5.5.4 1 .8 1.2 1.6.3.7.4 1.3.5 2.1v2.5c.2.7.2 1.5 0 2.3zm19.2-11.8c-1.6-1-3.7-1.6-6.3-1.6-3.1 0-5.5 1-7 3.1l3.3 2.6c.4-.7.8-1 1.4-1.3.5-.3 1.4-.3 2.5-.3 2.9 0 4.3.9 4.2 2.7v2.2h-5.7c-2.2 0-3.9.7-5.1 1.8-1.2 1.2-1.7 2.7-1.7 4.4 0 1.8.7 3.4 2 4.7s3 1.8 5.4 2c1.4 0 2.5-.1 3.3-.5s1.4-.9 1.8-1.6h.1v1.7h4.4V16.7c-.1-2.6-1-4.4-2.6-5.5zm-1.8 12.7c0 1.6-.3 2.6-1 3.1-.7.4-2 .7-3.7.7-1.4 0-2.3-.3-3-.8s-.9-1.2-.9-1.8c0-1.7 1.2-2.5 3.7-2.6h5v1.4zm14.8-10.1c1.7.1 3.1.8 4.2 2.2l3.1-2.9c-.9-1.2-2-2-3.3-2.7-1.2-.7-2.6-1-4.2-1-2.5 0-4.7.8-6.5 2.5-2 1.8-2.9 4.6-3 8.5 0 3.8 1 6.7 3 8.4 1.8 1.7 3.9 2.6 6.4 2.6 1.6 0 3-.4 4.2-1 1.3-.7 2.3-1.6 3.3-2.6l-3-3c-1 1.4-2.5 2.2-4.2 2.2-3.5 0-5.4-2.1-5.4-6.7 0-4.2 1.8-6.5 5.4-6.5zm17.8 4.5l7.2-8.4h-4.9l-8 10.1h-.1V1.3h-4.2v30h4.2v-6.1l3.2-3.8 5.6 9.9h5.3z" fill="#FFF"/><path fill="#FFF" d="M160.6 21.8l5 9.5 5.4-9.5z"/></svg>