<svg width="196" height="44" viewBox="0 0 196 44" fill="none" xmlns="http://www.w3.org/2000/svg">
<g clip-path="url(#clip0)">
<path fill-rule="evenodd" clip-rule="evenodd" d="M6.6446 17.1221C4.03584 12.6918 7.23002 7.10413 12.3714 7.10413H17.875C18.5078 7.10413 19.0209 7.61714 19.0209 8.24996C19.0209 8.88279 18.5078 9.3958 17.875 9.3958H12.3714C9.00289 9.3958 6.91016 13.0567 8.61934 15.9593L18.2477 32.3107C19.9317 35.1705 24.068 35.1704 25.7519 32.3105L28.4698 27.6942C28.7909 27.1489 29.4932 26.9671 30.0386 27.2882C30.5839 27.6092 30.7657 28.3116 30.4446 28.8569L27.7267 33.4732C25.1566 37.8383 18.8433 37.8385 16.273 33.4735L6.6446 17.1221ZM24.9792 8.24996C24.9792 7.61714 25.4922 7.10413 26.125 7.10413H31.6354C36.775 7.10413 39.9694 12.6883 37.3642 17.1186L34.5277 21.9424C34.207 22.4879 33.5047 22.6701 32.9592 22.3493C32.4137 22.0286 32.2315 21.3263 32.5523 20.7808L35.3888 15.957C37.0956 13.0544 35.0027 9.3958 31.6354 9.3958H26.125C25.4922 9.3958 24.9792 8.88279 24.9792 8.24996Z" fill="white"/>
<path d="M32.2096 15.4862L23.7761 29.768C22.9779 31.1197 21.0224 31.1197 20.2242 29.768L11.7907 15.4862C10.9788 14.1113 11.97 12.375 13.5667 12.375H30.4336C32.0303 12.375 33.0215 14.1113 32.2096 15.4862Z" fill="#DD4122"/>
<path d="M61.459 32H58.4502V13.4394H68.9238V16.0039H61.459V21.8056H68.4541V24.3828H61.459V32ZM81.353 32L80.9341 30.1591H80.7818C80.367 30.8108 79.7746 31.3229 79.0044 31.6953C78.2427 32.0677 77.371 32.2539 76.3892 32.2539C74.688 32.2539 73.4185 31.8307 72.5806 30.9843C71.7427 30.138 71.3237 28.8558 71.3237 27.1377V17.9589H74.3325V26.6171C74.3325 27.692 74.5526 28.5003 74.9927 29.042C75.4328 29.5752 76.1226 29.8418 77.062 29.8418C78.3146 29.8418 79.2329 29.4694 79.8169 28.7246C80.4094 27.9713 80.7056 26.7145 80.7056 24.9541V17.9589H83.7017V32H81.353ZM99.7871 32H96.7911V23.3671C96.7911 22.2838 96.571 21.4755 96.1309 20.9423C95.6993 20.4091 95.0095 20.1425 94.0616 20.1425C92.8005 20.1425 91.878 20.5149 91.294 21.2597C90.71 22.0045 90.418 23.2529 90.418 25.0048V32H87.4346V17.9589H89.7705L90.1895 19.7998H90.3418C90.765 19.1311 91.3659 18.6149 92.1446 18.2509C92.9232 17.887 93.7865 17.705 94.7344 17.705C98.1029 17.705 99.7871 19.4189 99.7871 22.8466V32ZM115.771 32H112.775V23.3671C112.775 22.2838 112.555 21.4755 112.115 20.9423C111.683 20.4091 110.993 20.1425 110.045 20.1425C108.784 20.1425 107.862 20.5149 107.278 21.2597C106.694 22.0045 106.402 23.2529 106.402 25.0048V32H103.419V17.9589H105.754L106.173 19.7998H106.326C106.749 19.1311 107.35 18.6149 108.128 18.2509C108.907 17.887 109.77 17.705 110.718 17.705C114.087 17.705 115.771 19.4189 115.771 22.8466V32ZM125.534 32.2539C123.351 32.2539 121.641 31.6191 120.405 30.3496C119.178 29.0716 118.565 27.3154 118.565 25.081C118.565 22.7874 119.136 20.9847 120.278 19.6728C121.421 18.361 122.991 17.705 124.988 17.705C126.842 17.705 128.306 18.2679 129.381 19.3935C130.456 20.5192 130.993 22.068 130.993 24.04V25.6523H121.637C121.679 27.0149 122.047 28.0644 122.741 28.8007C123.435 29.5286 124.413 29.8925 125.674 29.8925C126.503 29.8925 127.274 29.8164 127.984 29.664C128.704 29.5032 129.474 29.2408 130.295 28.8769V31.3017C129.567 31.6487 128.831 31.8942 128.086 32.038C127.341 32.1819 126.491 32.2539 125.534 32.2539ZM124.988 19.9648C124.04 19.9648 123.279 20.2653 122.703 20.8662C122.136 21.4671 121.798 22.3431 121.688 23.4941H128.061C128.044 22.3346 127.764 21.4586 127.223 20.8662C126.681 20.2653 125.936 19.9648 124.988 19.9648ZM136.846 32H133.863V12.2461H136.846V32ZM147.777 17.705C149.529 17.705 150.892 18.3398 151.865 19.6093C152.847 20.8789 153.338 22.6604 153.338 24.9541C153.338 27.2561 152.843 29.0504 151.853 30.3369C150.862 31.6149 149.487 32.2539 147.727 32.2539C145.949 32.2539 144.57 31.6149 143.588 30.3369H143.385L142.839 32H140.605V12.2461H143.588V16.9433C143.588 17.2903 143.571 17.8066 143.537 18.4921C143.503 19.1777 143.478 19.6136 143.461 19.7998H143.588C144.536 18.4033 145.932 17.705 147.777 17.705ZM147.003 20.1425C145.801 20.1425 144.934 20.498 144.401 21.2089C143.876 21.9114 143.605 23.0921 143.588 24.7509V24.9541C143.588 26.6637 143.859 27.9036 144.401 28.6738C144.942 29.4355 145.827 29.8164 147.054 29.8164C148.112 29.8164 148.912 29.3974 149.453 28.5595C150.003 27.7216 150.278 26.5114 150.278 24.9287C150.278 21.7379 149.187 20.1425 147.003 20.1425ZM165.069 32L164.472 30.0449H164.371C163.694 30.8997 163.012 31.4837 162.327 31.7968C161.641 32.1015 160.761 32.2539 159.686 32.2539C158.307 32.2539 157.228 31.8815 156.449 31.1367C155.679 30.3919 155.294 29.3382 155.294 27.9755C155.294 26.5283 155.831 25.4365 156.906 24.7002C157.981 23.9638 159.618 23.5618 161.819 23.4941L164.244 23.4179V22.6689C164.244 21.7718 164.032 21.1031 163.609 20.663C163.194 20.2145 162.547 19.9902 161.667 19.9902C160.947 19.9902 160.257 20.096 159.597 20.3076C158.937 20.5192 158.302 20.7688 157.693 21.0566L156.728 18.9238C157.49 18.526 158.324 18.2255 159.229 18.0224C160.135 17.8108 160.99 17.705 161.794 17.705C163.579 17.705 164.925 18.0944 165.831 18.873C166.745 19.6517 167.202 20.8746 167.202 22.542V32H165.069ZM160.626 29.9687C161.709 29.9687 162.576 29.6683 163.228 29.0673C163.888 28.458 164.218 27.6074 164.218 26.5156V25.2968L162.416 25.373C161.011 25.4238 159.987 25.6608 159.343 26.0839C158.709 26.4987 158.391 27.1377 158.391 28.0009C158.391 28.6272 158.577 29.1139 158.95 29.4609C159.322 29.7994 159.881 29.9687 160.626 29.9687ZM176.508 32.2539C174.384 32.2539 172.767 31.636 171.658 30.4003C170.558 29.1562 170.008 27.3746 170.008 25.0556C170.008 22.6943 170.583 20.8789 171.735 19.6093C172.894 18.3398 174.566 17.705 176.749 17.705C178.23 17.705 179.563 17.9801 180.748 18.5302L179.847 20.9296C178.586 20.4388 177.545 20.1933 176.724 20.1933C174.295 20.1933 173.08 21.8056 173.08 25.0302C173.08 26.6045 173.381 27.7893 173.982 28.5849C174.591 29.372 175.48 29.7656 176.648 29.7656C177.976 29.7656 179.233 29.4355 180.418 28.7753V31.3779C179.885 31.691 179.314 31.9153 178.704 32.0507C178.103 32.1862 177.371 32.2539 176.508 32.2539ZM186.081 24.5859L187.769 22.4785L192.009 17.9589H195.45L189.8 23.9892L195.805 32H192.301L187.795 25.8427L186.157 27.1884V32H183.199V12.2461H186.157V21.8818L186.005 24.5859H186.081Z" fill="white"/>
</g>
<defs>
<clipPath id="clip0">
<rect width="196" height="44" fill="white"/>
</clipPath>
</defs>
</svg>
