<svg  width="140" xmlns="http://www.w3.org/2000/svg" xmlns:xlink="http://www.w3.org/1999/xlink" x="0px" y="0px"
	 viewBox="0 0 500 88.3" style="enable-background:new 0 0 500 88.3;" xml:space="preserve">
<style type="text/css">
	.st0{fill:#fff;}
	.st1{fill:#ED3F24;}
</style>
<g>
	<path class="st0" d="M69,25h12v62H69v-6h-0.3c-3.8,5-9.5,7.5-15.6,7.3c-5.1-0.1-9.9-2.2-13.5-5.8c-4.4-3.6-6.5-8.9-6.5-16V35h-8v24
		l0,0v28H13V35H0V25h13v-8h-0.3c0.3-7,2.5-12,6.4-15.6c3.7-3.5,8.7-5.6,13.8-5.7c10.5,0,14.9,2.5,19.5,8.2l-7.5,7.3
		c-2.4-2.1-5.5-3.1-8.7-2.9c-3-0.1-5.9,1.2-7.9,3.5c-2.3,2.3-3.3,5.6-3.3,10V25h18.5l0,0H45v37.2c0,4.2,1.1,7.5,3.4,9.9
		c2.2,2.4,5.3,3.7,8.6,3.6c3.2,0.1,6.4-1.2,8.6-3.6c2.3-2.4,3.4-5.7,3.4-9.9V25z M117.3,24.3c-6.1-0.2-12,2.7-15.8,7.7H101v-7H89v62
		h12V50.2c0-4.4,1.3-7.7,3.6-10c2.3-2.3,5.5-3.6,8.7-3.5c3.2-0.1,6.2,1.2,8.5,3.5s3.3,5.6,3.3,10V87h13V45.9
		c-1-7.2-2.6-12.5-6.7-16.2C127.5,26.2,122.4,24.4,117.3,24.3z M171.2,24.3c-6.1-0.2-12,2.7-15.8,7.7H155v-7h-12v62h12V50.2
		c0-4.4,1.3-7.7,3.6-10s5.5-3.6,8.7-3.5c3.2-0.1,6.2,1.2,8.5,3.5s3.3,5.6,3.3,10V87h12V45.9c0-7.2-2.1-12.5-6.2-16.2
		C181,26.2,176.3,24.4,171.2,24.3z M238.8,31.2c4.9,4.7,7.2,11.2,7.2,19.4V61h-37l0,0c0,5,1.2,8.8,4,11.4c2.7,2.7,6.4,4.1,10.2,4
		c5.1-0.1,9.9-2.3,13.2-6.1l8.8,7.8c-6.2,6.8-13.5,10.2-21.8,10.1c-3.2,0-6.3-0.5-9.3-1.4c-1.6-0.5-3-1.2-4.4-2.1
		c-1.5-0.8-3-1.7-4.3-2.8c-2.8-2.7-5-6.1-6.2-9.8c-1.8-4-2.6-9.2-2.6-15.7c-0.1-5.2,0.6-10.5,2.3-15.4c1.2-3.7,3.2-7,5.8-9.9
		c2.3-2.4,5-4.2,8.1-5.3c2.8-1.1,5.8-1.6,8.8-1.6C228,24,234.1,26.6,238.8,31.2z M234.3,51c-0.2-5-1.4-8.7-3.8-11.2
		c-5.1-4.8-13-4.9-18-0.1c-2.3,2.5-3.6,6.3-3.8,11.3H234.3z M264,71.4V0h-13v72.3c0,5.5,1.7,9.2,4.7,11.5c3.2,2.4,7.2,4.2,11.2,3.2
		h1.2l0.2-11.6C265.3,75.4,264,74.2,264,71.4z M318.4,40.1c1.2,10.6,1.2,21.3,0,32c-0.4,2.9-1.6,5.7-3.4,8c-1.7,2.4-4,4.4-6.6,5.8
		c-2.7,1.5-6.1,1.5-9.9,1.6c-6.4-0.2-11.4-1.9-15.4-6.5v6.1h-12V-0.3l-0.2,0.4H283v31.5c2-2.2,4.6-4,7.3-5.4c2.6-1.4,5.4-2,8.4-2
		c7.4,0.2,12.9,2.9,16.3,8.2C316.7,34.6,317.9,37.2,318.4,40.1z M307.1,56.1c0-2.5,0-4.9-0.1-7.3c-0.2-2.1-0.8-4.2-1.6-6.2
		c-0.7-1.8-1.9-3.4-3.6-4.5c-2.1-1.1-4.5-1.6-6.8-1.5l0,0c-2.3-0.1-4.6,0.5-6.5,1.8c-1.7,1.1-2.9,2.7-3.7,4.6
		c-0.8,2-1.3,4.1-1.5,6.2c-0.5,4.6-0.5,9.2,0,13.7c0.2,2.2,0.7,4.3,1.5,6.4c0.7,1.9,2,3.5,3.7,4.6c1.9,1.3,4.2,1.9,6.5,1.8
		c2.4,0.1,4.8-0.5,6.8-1.7c1.6-1.1,2.9-2.7,3.6-4.5c0.8-2.1,1.3-4.2,1.6-6.4C307,60.8,307.1,58.5,307.1,56.1z M370,44.7V87h-12v-5.1
		l-0.3,0.1h-0.2c-1.1,2-3,3.8-5.3,4.7c-3.1,1.2-6.4,1.7-9.7,1.5c-6.8-0.1-12-1.9-15.6-5.5c-3.8-3.5-5.9-8.4-5.8-13.5
		c-0.2-4.9,1.7-9.5,5-13s8.2-5.2,14.7-5.2H358v-7c0-5.5-4.2-8.2-12.6-8.1c-2.4-0.1-5,0.2-7.3,1c-1.8,0.8-3.4,2.1-4.3,3.9l-9.6-7.5
		c4.6-6.2,11.5-9.3,20.5-9.1c7.6-0.1,13.7,1.4,18.3,4.5C367.6,31.7,370,37.1,370,44.7z M357.7,61h-14.6c-7.1,0-10.6,2.6-10.5,7.5
		c0,2.1,1,4.1,2.8,5.4c1.8,1.6,4.7,2.5,8.7,2.5c5.1,0.1,8.8-0.5,10.9-1.9c1.9-1.3,3-4.3,3-9.1v-4.5L357.7,61z M400.3,36.6
		c4.9,0.1,9.5,2.5,12.3,6.6l9-8.2c-2.6-3.2-5.7-5.9-9.3-7.9c-3.8-2-8.1-3-12.4-3c-7-0.1-13.8,2.5-18.8,7.4
		c-5.6,5.1-8.5,13.3-8.6,24.7c0.2,11.3,3,19.4,8.6,24.4c5,4.9,11.8,7.6,18.8,7.5c4.3,0,8.6-1.1,12.4-3.2c3.6-1.9,6.7-4.5,9.3-7.6
		l-9-8.3c-2.8,4.1-7.4,6.6-12.3,6.5c-10.4,0.2-15.6-6.3-15.8-19.4C384.7,43,389.9,36.5,400.3,36.6z M453,49.1L473.9,25h-14.6L436,54
		l0,0V0h-12v87h12V69.5l9.5-11.4l16,29h15.3L453,49.1z"/>
	<polygon class="st1" points="500,59.5 487.1,59.5 481.1,59.5 468.2,59.5 484.1,87.4 484.1,87.3 484.1,87.4 	"/>
</g>
</svg>
