<svg xmlns="http://www.w3.org/2000/svg" width="27.255" height="27.255" viewBox="0 0 27.255 27.255"><defs><style>.a{fill:none;}</style></defs><path class="a" d="M0,0H27.255V27.255H0Z"/><path d="M10.976,21.123V15.445h4.543v5.678a1.139,1.139,0,0,0,1.136,1.136h3.407A1.139,1.139,0,0,0,21.2,21.123V13.174h1.931a.563.563,0,0,0,.375-.988L14.008,3.635a1.144,1.144,0,0,0-1.522,0L2.993,12.186a.566.566,0,0,0,.375.988H5.3v7.949a1.139,1.139,0,0,0,1.136,1.136H9.841A1.139,1.139,0,0,0,10.976,21.123Z" transform="translate(0.38 0.454)"/></svg>