<svg width="53" height="48" viewBox="0 0 53 48" fill="none" xmlns="http://www.w3.org/2000/svg">
<path opacity="0.15" d="M39.5631 30.2224H37.4358L36.6818 29.4953C39.3208 26.4255 40.9095 22.4402 40.9095 18.1048C40.9095 8.43762 33.0735 0.601562 23.4063 0.601562C14.1969 0.601562 6.65709 7.71056 5.98389 16.7584H11.4233C12.0965 10.6996 17.159 5.98717 23.4063 5.98717C30.1114 5.98717 35.5239 11.3997 35.5239 18.1048C35.5239 24.8099 30.1114 30.2224 23.4063 30.2224C22.9485 30.2224 22.5177 30.1416 22.0599 30.0877V35.5272C22.5177 35.5811 22.9485 35.608 23.4063 35.608C27.7417 35.608 31.7271 34.0192 34.7969 31.3803L35.5239 32.1343V34.2616L48.9879 47.6987L53.0002 43.6864L39.5631 30.2224Z" fill="black"/>
<path d="M15.247 21.6592L8.59582 28.3104L1.9446 21.6592L0.0327148 23.5711L6.68393 30.2223L0.0327148 36.8735L1.9446 38.7854L8.59582 32.1342L15.247 38.7854L17.1589 36.8735L10.5077 30.2223L17.1589 23.5711L15.247 21.6592Z" fill="#E42B12"/>
</svg>
