<?xml version="1.0" encoding="utf-8"?>
<!-- Generator: Adobe Illustrator 24.1.2, SVG Export Plug-In . SVG Version: 6.00 Build 0)  -->
<svg xmlns="http://www.w3.org/2000/svg" xmlns:xlink="http://www.w3.org/1999/xlink" x="0px" y="0px"
	 viewBox="0 0 18.8 18.8" style="enable-background:new 0 0 18.8 18.8;" xml:space="preserve">
<style type="text/css">
	.st0{fill:#2DAAE1;}
	.st1{fill:#FFFFFF;}
</style>
<circle class="st0" cx="9.4" cy="9.4" r="9.4"/>
<path id="Path_364" class="st1" d="M3.1,13.9c3.4,2.2,8,1.2,10.2-2.2c0.8-1.3,1.2-2.8,1.2-4.3C14.9,7,15.4,6.5,15.7,6
	c-0.5,0.2-1,0.3-1.5,0.4c0.5-0.3,0.9-0.8,1.1-1.4c-0.5,0.3-1.1,0.5-1.6,0.6c-1-1-2.6-1.1-3.7-0.1C9.4,6.1,9.1,7.1,9.3,8
	C7.2,7.9,5.3,6.9,4,5.3C3.3,6.5,3.6,8,4.8,8.7c-0.4,0-0.8-0.1-1.2-0.3c0,1.2,0.9,2.3,2.1,2.6c-0.4,0.1-0.8,0.1-1.2,0
	c0.3,1.1,1.3,1.8,2.4,1.8C5.8,13.7,4.4,14.1,3.1,13.9z"/>
</svg>
