<svg xmlns="http://www.w3.org/2000/svg" width="100%" height="auto" viewBox="0 0 19.006 22.808"><defs><style>.a{fill:#e42b12;}</style></defs><path class="a" d="M24.155,0h-13.3A2.85,2.85,0,0,0,8,2.851V19.957a2.85,2.85,0,0,0,2.851,2.851h13.3a2.85,2.85,0,0,0,2.851-2.851V2.851A2.85,2.85,0,0,0,24.155,0Zm.95,19.957a.95.95,0,0,1-.95.95h-13.3a.95.95,0,0,1-.95-.95V2.851a.95.95,0,0,1,.95-.95h13.3a.95.95,0,0,1,.95.95Zm-3.8-3.8H13.7a.95.95,0,1,0,0,1.9h7.6a.95.95,0,1,0,0-1.9Zm0-3.8H13.7a.95.95,0,1,0,0,1.9h7.6a.95.95,0,1,0,0-1.9Zm0-3.8H13.7a.95.95,0,1,0,0,1.9h7.6a.95.95,0,1,0,0-1.9Zm-7.6-1.9h3.8a.95.95,0,0,0,0-1.9H13.7a.95.95,0,1,0,0,1.9Z" transform="translate(-8)"/></svg>