<svg xmlns="http://www.w3.org/2000/svg" width="100%" height="auto" viewBox="0 0 19.789 24.736"><defs><style>.a{fill:#e42b12;}</style></defs><path class="a" d="M13.894,2A9.894,9.894,0,0,0,4,11.894c0,6.679,8.72,14.223,9.091,14.545a1.237,1.237,0,0,0,1.608,0c.433-.322,9.091-7.866,9.091-14.545A9.894,9.894,0,0,0,13.894,2Zm0,21.83c-2.634-2.474-7.421-7.8-7.421-11.935a7.421,7.421,0,1,1,14.842,0C21.315,16.025,16.529,21.368,13.894,23.83Zm0-16.882a4.947,4.947,0,1,0,4.947,4.947A4.947,4.947,0,0,0,13.894,6.947Zm0,7.421a2.474,2.474,0,1,1,2.474-2.474A2.474,2.474,0,0,1,13.894,14.368Z" transform="translate(-4 -2)"/></svg>